<svg width="150" height="161" viewBox="0 0 150 161" fill="none" xmlns="http://www.w3.org/2000/svg">
<ellipse cx="72.9998" cy="158.369" rx="47.3846" ry="2.63058" fill="#C1BDBD"/>
<ellipse cx="77.602" cy="20.7238" rx="7.48538" ry="13.5673" transform="rotate(10.57 77.602 20.7238)" fill="#00DF59"/>
<ellipse cx="89.4962" cy="20.8042" rx="5.146" ry="9.32713" transform="rotate(10.57 89.4962 20.8042)" fill="#00DF59"/>
<ellipse cx="8.73826" cy="16.5416" rx="8.73826" ry="16.5416" transform="matrix(-0.983031 0.183437 0.183437 0.983031 70.4492 -1)" fill="#00DF59"/>
<rect x="13.9707" y="18.6484" width="121.637" height="121.637" rx="24" fill="#00DF59"/>
<path d="M21.4551 58.3926C21.4551 41.422 21.4551 32.9367 26.7272 27.6647C31.9992 22.3926 40.4845 22.3926 57.4551 22.3926H83.8645C106.492 22.3926 117.806 22.3926 124.835 29.422C131.864 36.4515 131.864 47.7652 131.864 70.3926V88.5446C131.864 111.172 131.864 122.486 124.835 129.515C117.806 136.545 106.492 136.545 83.8644 136.545H65.4551C44.7133 136.545 34.3424 136.545 27.8987 130.101C21.4551 123.657 21.4551 113.286 21.4551 92.5446V58.3926Z" fill="#4EFE95"/>
<path d="M67.5321 62.3676C67.5321 65.8023 66.5634 68.7046 64.7326 70.725C62.9329 72.7111 60.0856 74.0829 55.8168 74.0829C51.548 74.0829 48.7008 72.7111 46.9011 70.725C45.0702 68.7046 44.1016 65.8023 44.1016 62.3676C44.1016 55.8975 49.3467 50.6524 55.8168 50.6524C62.287 50.6524 67.5321 55.8975 67.5321 62.3676Z" fill="#2B2929" stroke="#2B2929" stroke-width="4.12507"/>
<circle cx="57.4781" cy="64.9644" r="4.21053" fill="white"/>
<path d="M105.895 62.3676C105.895 65.9131 105.106 68.7924 103.411 70.7658C101.766 72.6801 98.9706 74.0829 94.1801 74.0829C89.3896 74.0829 86.5944 72.6801 84.9495 70.7658C83.2538 68.7924 82.4649 65.9131 82.4649 62.3676C82.4649 55.8975 87.71 50.6524 94.1801 50.6524C100.65 50.6524 105.895 55.8975 105.895 62.3676Z" fill="#2B2929" stroke="#2B2929" stroke-width="4.12507"/>
<ellipse cx="96.7769" cy="64.9644" rx="4.21053" ry="4.21053" fill="white"/>
<path d="M64.4961 81.3379C64.4961 81.3379 67.3277 86.9519 75.2563 86.9519C83.1849 86.9519 86.0166 81.3379 86.0166 81.3379" stroke="#2B2929" stroke-width="5" stroke-linecap="round"/>
<ellipse cx="44.3803" cy="86.9534" rx="17.3099" ry="16.8421" fill="#4EFE95"/>
<ellipse cx="44.3791" cy="86.9523" rx="8.88889" ry="8.42105" fill="#00DF59"/>
<ellipse cx="104.263" cy="86.9534" rx="17.3099" ry="16.8421" fill="#4EFE95"/>
<ellipse cx="104.262" cy="86.9523" rx="8.88889" ry="8.42105" fill="#00DF59"/>
<rect x="148.512" y="79.4688" width="14.6004" height="14.943" rx="6" transform="rotate(81.3721 148.512 79.4688)" fill="#045625"/>
<rect x="16.8027" y="80.9023" width="14.6004" height="14.943" rx="6" transform="rotate(102.782 16.8027 80.9023)" fill="#045625"/>
<rect x="44.8477" y="144.029" width="19.6491" height="14.9708" rx="3" fill="#045625"/>
<rect x="82.2754" y="144.029" width="19.6491" height="14.9708" rx="3" fill="#045625"/>
<ellipse cx="5.57641" cy="10.7572" rx="5.57641" ry="10.7572" transform="matrix(0.980675 0.195645 -0.171942 0.985107 73.3477 11.1211)" fill="#4EFE95"/>
<ellipse cx="3.83364" cy="7.39526" rx="3.83364" ry="7.39526" transform="matrix(0.980675 0.195645 -0.171942 0.985107 83.3184 14.8379)" fill="#4EFE95"/>
<ellipse cx="6.50977" cy="13.1154" rx="6.50977" ry="13.1154" transform="matrix(-0.980675 0.195645 0.171942 0.985107 71.6504 5.54883)" fill="#4EFE95"/>
</svg>
