<svg width="127" height="127" viewBox="0 0 127 127" fill="none" xmlns="http://www.w3.org/2000/svg">
<g id="Group 83">
<circle id="Ellipse 245" cx="63.5006" cy="63.6598" r="62.3298" fill="#FDF5EF" stroke="#A8A6A6" stroke-width="1.97872"/>
<circle id="Ellipse 242" cx="63.5" cy="63" r="61.0106" fill="#FDF5EF" stroke="#FEEAD9" stroke-width="1.97872"/>
<circle id="Ellipse 244" cx="63.5" cy="63" r="61.0106" fill="#FDF5EF" stroke="#FEEAD9" stroke-width="1.97872"/>
<circle id="Ellipse 243" cx="63.5001" cy="63.0001" r="42.5425" fill="#F3E6DD" stroke="#E2D3C6" stroke-width="3.29787"/>
<rect id="Rectangle 3078" x="24.5898" y="88.0635" width="16.2607" height="12.5658" rx="3.95745" transform="rotate(47.3223 24.5898 88.0635)" fill="#F5EBE4"/>
<rect id="Rectangle 3079" x="17.9863" y="82.7871" width="6.58324" height="6.52627" rx="3.26313" transform="rotate(45 17.9863 82.7871)" fill="#F5EBE4"/>
<path id="Vector 120" d="M110.684 52.8726C109.772 50.0403 108.512 46.3749 107.361 43.8722C106.078 41.083 104.025 37.6417 102.486 35.1834L102.42 35.0782C101.299 33.2851 101.724 31.0545 103.424 29.798C103.423 29.7988 103.422 29.7996 103.421 29.8003C103.42 29.8009 103.529 29.7205 103.485 29.7526L103.427 29.7955C103.426 29.7963 103.425 29.7972 103.424 29.798C105.189 28.5015 107.813 28.9551 109.042 30.7663C109.019 30.7328 108.997 30.6995 108.975 30.6664C108.923 30.5894 109.052 30.7819 109.052 30.7811C109.049 30.7761 109.045 30.7712 109.042 30.7663C110.728 33.2839 112.935 36.7584 114.287 39.5849C115.875 42.9063 117.38 47.63 118.304 50.7754C118.861 52.6716 117.869 54.6538 116.04 55.4021C113.869 56.29 111.404 55.1048 110.684 52.8726Z" fill="#F5EBE4"/>
</g>
</svg>
