<svg width="41" height="47" viewBox="0 0 41 47" fill="none" xmlns="http://www.w3.org/2000/svg">
<ellipse cx="20.5001" cy="46.1007" rx="13.881" ry="0.770608" fill="#D5B95B"/>
<path d="M24.6962 3.22168H15.522C12.7436 3.22168 11.3545 3.22168 10.6508 4.12841C9.94712 5.03513 10.292 6.38083 10.9816 9.07222L13.7683 19.9471C14.3128 22.0721 14.5851 23.1346 15.4 23.6948C16.2149 24.255 17.3044 24.1287 19.4835 23.876H19.4835L23.2076 23.4443C23.5889 23.4001 23.7795 23.378 23.8808 23.4931C23.9821 23.6081 23.936 23.7944 23.8438 24.167L21.3269 34.3374C19.9092 40.066 19.2004 42.9303 20.1339 43.315C21.0675 43.6997 22.5826 41.1677 25.6128 36.1038L32.5116 24.5749C34.6292 21.0361 35.688 19.2667 34.9305 17.9305C34.1729 16.5944 32.1109 16.5944 27.9869 16.5944H27.1598C26.769 16.5944 26.5736 16.5944 26.4864 16.4661C26.3993 16.3378 26.4712 16.1561 26.6151 15.7928L29.054 9.6346C30.2052 6.72781 30.7808 5.27441 30.0834 4.24805C29.3859 3.22168 27.8227 3.22168 24.6962 3.22168Z" fill="#EEA210"/>
<path d="M23.9033 3.22168H14.729C11.9507 3.22168 10.5615 3.22168 9.85783 4.12841C9.15415 5.03513 9.49898 6.38083 10.1887 9.07222L12.9753 19.9471C13.5199 22.0721 13.7921 23.1346 14.607 23.6948C15.4219 24.255 16.5115 24.1287 18.6905 23.876H18.6905L22.4394 23.4414C22.8107 23.3984 22.9963 23.3768 23.0975 23.4885C23.1986 23.6003 23.1589 23.7829 23.0793 24.1481L19.8786 38.8423C18.9546 43.084 18.4927 45.2049 19.1975 45.475C19.9024 45.7452 20.9761 43.8587 23.1235 40.0858L32.0084 24.4757C34.0038 20.9698 35.0015 19.2168 34.2391 17.9056C33.4767 16.5944 31.4597 16.5944 27.4257 16.5944H26.3669C25.976 16.5944 25.7806 16.5944 25.6935 16.4661C25.6063 16.3378 25.6782 16.1561 25.8221 15.7928L28.261 9.6346C29.4122 6.72781 29.9878 5.27441 29.2904 4.24805C28.5929 3.22168 27.0297 3.22168 23.9033 3.22168Z" fill="#FFC045"/>
<rect x="12.0039" y="45.9912" width="2.34354" height="6.44473" rx="0.878827" transform="rotate(-90 12.0039 45.9912)" fill="#EC8D20"/>
<rect x="21.377" y="45.9912" width="2.34354" height="6.44473" rx="0.878827" transform="rotate(-90 21.377 45.9912)" fill="#EC8D20"/>
<path d="M31.496 17.9848L30.3618 17.9403C29.4302 17.9038 28.9643 17.8855 28.8096 17.9842C28.5498 18.1499 28.4629 18.4886 28.6106 18.759C28.6986 18.9201 29.1156 19.1286 29.9495 19.5455C30.1571 19.6493 30.2609 19.7012 30.3306 19.7733C30.4461 19.8929 30.5054 20.0559 30.4937 20.2217C30.4866 20.3217 30.4404 20.4282 30.3481 20.6411L30.3481 20.6411L19.8105 44.9288L32.4311 19.5627C32.7435 18.9348 32.8997 18.6209 32.795 18.3729C32.7744 18.3241 32.7473 18.2784 32.7144 18.237C32.5472 18.026 32.1968 18.0123 31.496 17.9848Z" fill="#FFD480"/>
<rect x="34.5938" y="26.2598" width="3.45556" height="3.29198" rx="1.17177" transform="rotate(82.5849 34.5938 26.2598)" fill="#EC8D20"/>
<rect width="3.45556" height="3.29198" rx="1.17177" transform="matrix(-0.384941 0.922941 0.922941 0.384941 19.6836 24.4062)" fill="#EC8D20"/>
<path d="M24.4981 4.3366L12.1343 4.52393C11.3848 4.53528 10.8383 5.23546 11.0133 5.96434C11.6214 8.49639 12.8972 13.7689 13.5867 16.3299C13.9266 17.5924 13.3788 9.6028 13.2268 7.4523C13.2057 7.1527 13.4143 6.88952 13.7101 6.83718L24.5536 4.91796C24.9086 4.85513 24.8586 4.33114 24.4981 4.3366Z" fill="#FFD480"/>
<path d="M21.8854 4.60126L12.6622 4.74233C11.9137 4.75378 11.3679 5.45347 11.5413 6.18161C12.0583 8.3521 13.0454 12.4618 13.5883 14.4975C13.8619 15.5233 13.4326 9.15384 13.3002 7.25545C13.2794 6.95635 13.4874 6.69303 13.7826 6.6403L21.9414 5.18254C22.2961 5.11917 22.2457 4.59575 21.8854 4.60126Z" fill="#FDE8BF"/>
<path d="M16.3712 14.7155C16.3512 15.521 16.1075 16.1838 15.6789 16.6337C15.2596 17.0739 14.5993 17.3781 13.5989 17.3532C12.7058 17.331 12.1374 16.8895 11.768 16.2349C11.3819 15.5506 11.2246 14.6382 11.2457 13.7933C11.2688 12.8647 11.3638 12.2656 11.6568 11.8852C11.9117 11.554 12.44 11.2487 13.75 11.2813C14.9553 11.3113 15.5667 11.7747 15.91 12.353C16.2834 12.982 16.3931 13.8393 16.3712 14.7155Z" fill="#1E1E1E" stroke="#1E1E1E" stroke-width="1.20841"/>
<circle cx="12.8393" cy="15.9524" r="1.19163" transform="rotate(1.42566 12.8393 15.9524)" fill="white"/>
<path d="M24.0529 14.7741C24.0328 15.5795 23.7891 16.2424 23.3605 16.6923C22.9413 17.1325 22.2809 17.4367 21.2805 17.4118C20.3874 17.3896 19.819 16.9481 19.4497 16.2935C19.0635 15.6091 18.9063 14.6968 18.9273 13.8519C18.9504 12.9232 19.0454 12.3242 19.3384 11.9437C19.5934 11.6126 20.1216 11.3073 21.4316 11.3399C22.637 11.3699 23.2484 11.8333 23.5916 12.4116C23.965 13.0406 24.0747 13.8979 24.0529 14.7741Z" fill="#1E1E1E" stroke="#1E1E1E" stroke-width="1.20841"/>
<ellipse cx="1.19163" cy="1.19163" rx="1.19163" ry="1.19163" transform="matrix(-0.99969 -0.0248799 -0.0248799 0.99969 21.4805 14.71)" fill="white"/>
<path d="M19.9636 19.428C19.9636 19.428 19.0645 20.9229 17.598 20.7624C16.1315 20.6019 15.2931 19.2192 15.2931 19.2192" stroke="#1E1E1E" stroke-width="1.46471" stroke-linecap="round"/>
</svg>
