<svg width="41" height="47" viewBox="0 0 41 47" fill="none" xmlns="http://www.w3.org/2000/svg">

<path d="M23.9033 3.22168H14.729C11.9507 3.22168 10.5615 3.22168 9.85783 4.12841C9.15415 5.03513 9.49898 6.38083 10.1887 9.07222L12.9753 19.9471C13.5199 22.0721 13.7921 23.1346 14.607 23.6948C15.4219 24.255 16.5115 24.1287 18.6905 23.876H18.6905L22.4394 23.4414C22.8107 23.3984 22.9963 23.3768 23.0975 23.4885C23.1986 23.6003 23.1589 23.7829 23.0793 24.1481L19.8786 38.8423C18.9546 43.084 18.4927 45.2049 19.1975 45.475C19.9024 45.7452 20.9761 43.8587 23.1235 40.0858L32.0084 24.4757C34.0038 20.9698 35.0015 19.2168 34.2391 17.9056C33.4767 16.5944 31.4597 16.5944 27.4257 16.5944H26.3669C25.976 16.5944 25.7806 16.5944 25.6935 16.4661C25.6063 16.3378 25.6782 16.1561 25.8221 15.7928L28.261 9.6346C29.4122 6.72781 29.9878 5.27441 29.2904 4.24805C28.5929 3.22168 27.0297 3.22168 23.9033 3.22168Z" fill="#FFC045"/>
<path d="M31.496 17.9848L30.3618 17.9403C29.4302 17.9038 28.9643 17.8855 28.8096 17.9842C28.5498 18.1499 28.4629 18.4886 28.6106 18.759C28.6986 18.9201 29.1156 19.1286 29.9495 19.5455C30.1571 19.6493 30.2609 19.7012 30.3306 19.7733C30.4461 19.8929 30.5054 20.0559 30.4937 20.2217C30.4866 20.3217 30.4404 20.4282 30.3481 20.6411L30.3481 20.6411L19.8105 44.9288L32.4311 19.5627C32.7435 18.9348 32.8997 18.6209 32.795 18.3729C32.7744 18.3241 32.7473 18.2784 32.7144 18.237C32.5472 18.026 32.1968 18.0123 31.496 17.9848Z" fill="#FFD480"/>
<path d="M24.4981 4.3366L12.1343 4.52393C11.3848 4.53528 10.8383 5.23546 11.0133 5.96434C11.6214 8.49639 12.8972 13.7689 13.5867 16.3299C13.9266 17.5924 13.3788 9.6028 13.2268 7.4523C13.2057 7.1527 13.4143 6.88952 13.7101 6.83718L24.5536 4.91796C24.9086 4.85513 24.8586 4.33114 24.4981 4.3366Z" fill="#FFD480"/>
<path d="M21.8854 4.60126L12.6622 4.74233C11.9137 4.75378 11.3679 5.45347 11.5413 6.18161C12.0583 8.3521 13.0454 12.4618 13.5883 14.4975C13.8619 15.5233 13.4326 9.15384 13.3002 7.25545C13.2794 6.95635 13.4874 6.69303 13.7826 6.6403L21.9414 5.18254C22.2961 5.11917 22.2457 4.59575 21.8854 4.60126Z" fill="#FDE8BF"/>
</svg>
