<svg width="133" height="31" fill="none" xmlns="http://www.w3.org/2000/svg"><g clip-path="url(#a)"><g fill="#1E1E1E"><path d="M90.96 22.998c-1.07-1.013-1.628-2.488-1.675-4.421v-.82c.062-1.84.632-3.279 1.71-4.316 1.077-1.037 2.523-1.556 4.337-1.556 1.318 0 2.431.27 3.338.807a5.156 5.156 0 0 1 2.047 2.211c.457.936.686 2.013.686 3.229v.561a.586.586 0 0 1-.163.41.547.547 0 0 1-.419.175h-7.443v.164c.03.733.21 1.325.535 1.778.326.453.798.678 1.419.678.387 0 .705-.082.953-.246.248-.164.473-.363.675-.597.14-.17.253-.276.338-.316.085-.039.22-.058.406-.058h2.885c.14 0 .26.043.361.128.1.086.151.2.151.34 0 .405-.229.873-.686 1.403-.458.53-1.12.991-1.99 1.381-.868.39-1.89.585-3.07.585-1.86 0-3.325-.507-4.395-1.521v.001Zm6.35-6.037v-.046c0-.764-.175-1.37-.524-1.814-.349-.445-.833-.667-1.454-.667-.62 0-1.081.223-1.43.667-.35.445-.524 1.05-.524 1.814v.047h3.931ZM33.036 24.343a.563.563 0 0 1-.174-.41V8.726a.579.579 0 0 1 .581-.585h3.117c.17 0 .315.056.431.164.116.11.175.25.175.421v15.209a.55.55 0 0 1-.175.421.604.604 0 0 1-.43.164h-3.117a.557.557 0 0 1-.408-.176ZM55.298 19.91v-4.492h-1.815a.604.604 0 0 1-.43-.163.552.552 0 0 1-.175-.422v-1.895a.55.55 0 0 1 .175-.421.608.608 0 0 1 .43-.164h1.815v-3.86a.55.55 0 0 1 .174-.422.577.577 0 0 1 .407-.164h2.698c.171 0 .31.055.42.164.107.11.162.25.162.421v3.861h2.907c.171 0 .315.055.43.164.117.109.175.25.175.42v1.896a.552.552 0 0 1-.174.422.604.604 0 0 1-.43.163h-2.908v4.165c0 1.155.442 1.731 1.326 1.731h1.791c.17 0 .31.055.418.164.109.109.164.25.164.421v2.036a.583.583 0 0 1-.164.41.547.547 0 0 1-.418.175h-2.164c-3.21 0-4.814-1.537-4.814-4.61ZM66.171 24.039c-.674-.32-1.202-.756-1.582-1.31a3.174 3.174 0 0 1-.57-1.837c0-1.076.438-1.942 1.315-2.597.876-.655 2.082-1.107 3.617-1.357l2.908-.445v-.328c0-.592-.125-1.03-.373-1.31s-.666-.421-1.255-.421c-.357 0-.651.062-.884.187a3.86 3.86 0 0 0-.721.515c-.218.187-.38.312-.489.374-.046.125-.132.187-.256.187h-2.535a.518.518 0 0 1-.384-.152.423.423 0 0 1-.128-.363c.015-.421.22-.889.616-1.404.396-.514 1-.96 1.815-1.334.814-.374 1.818-.561 3.012-.561 1.908 0 3.319.425 4.234 1.275.915.85 1.372 1.993 1.372 3.428v7.113a.586.586 0 0 1-.163.41.547.547 0 0 1-.418.175h-2.699a.554.554 0 0 1-.406-.176.561.561 0 0 1-.175-.41v-.818c-.34.483-.818.877-1.43 1.181-.614.304-1.338.456-2.175.456-.837 0-1.57-.16-2.245-.48l-.001.002Zm5.07-2.89c.443-.467.663-1.154.663-2.058v-.328l-1.977.351c-1.396.25-2.093.741-2.093 1.474 0 .39.162.698.488.925.326.226.721.34 1.186.34.714 0 1.292-.235 1.733-.703Z"/><path d="M77.91 24.344a.564.564 0 0 1-.175-.41V8.492c0-.171.058-.312.175-.42a.576.576 0 0 1 .407-.165h2.698c.17 0 .31.055.419.164.108.11.162.25.162.421v7.838l3.233-3.58c.03-.03.089-.085.174-.164a.946.946 0 0 1 .268-.175.847.847 0 0 1 .326-.059h3.117c.14 0 .26.051.36.152a.496.496 0 0 1 .152.363.468.468 0 0 1-.186.398l-4.187 4.54 4.768 5.825c.124.125.187.242.187.351a.518.518 0 0 1-.536.538h-3.186c-.203 0-.353-.03-.454-.093a2.056 2.056 0 0 1-.36-.304l-3.676-4.445v4.258a.586.586 0 0 1-.162.41.547.547 0 0 1-.42.175h-2.697a.554.554 0 0 1-.407-.176ZM39.273 24.354a.57.57 0 0 1-.163-.42V12.935c0-.171.054-.312.163-.42a.564.564 0 0 1 .419-.165h2.675c.17 0 .314.055.43.164.115.11.174.25.174.421v.89c.418-.515.957-.928 1.617-1.24.659-.313 1.407-.469 2.245-.469 1.364 0 2.473.465 3.326 1.393.852.928 1.28 2.226 1.28 3.895v6.528a.583.583 0 0 1-.164.41.545.545 0 0 1-.418.175h-2.931a.556.556 0 0 1-.407-.175.563.563 0 0 1-.175-.41v-6.387c0-.733-.178-1.3-.535-1.696-.356-.398-.869-.597-1.535-.597-.666 0-1.163.199-1.535.597-.372.398-.558.963-.558 1.696v6.387a.585.585 0 0 1-.163.41.547.547 0 0 1-.419.175h-2.907a.564.564 0 0 1-.419-.164ZM104.433 24.356a.547.547 0 0 1-.173-.419v-1.654c0-.466.192-.847.579-1.142l2.471-2.212c1.315-1.059 2.408-2.098 3.134-2.704.726-.605 1.274-1.156 1.645-1.654.37-.497.555-.97.555-1.421 0-1.227-.602-1.84-1.806-1.84-.634 0-1.12.19-1.46.57-.339.381-.563.859-.671 1.433-.092.358-.355.537-.788.537h-2.895a.473.473 0 0 1-.487-.49 5.402 5.402 0 0 1 .823-2.737c.517-.831 1.251-1.491 2.2-1.98.95-.49 2.043-.735 3.278-.735 1.297 0 2.409.21 3.335.629.927.42 1.629 1.01 2.108 1.771.478.762.718 1.647.718 2.656a4.77 4.77 0 0 1-1.008 2.97c-.77 1.009-1.644 1.798-3.056 3.069l-2.144 2h5.953c.17 0 .313.054.429.162a.55.55 0 0 1 .173.42v2.353c0 .17-.058.31-.173.419a.606.606 0 0 1-.429.163h-11.882a.604.604 0 0 1-.429-.163ZM126.504 24.344a.56.56 0 0 1-.174-.408v-2.633h-7.204a.563.563 0 0 1-.417-.162.569.569 0 0 1-.162-.42v-2.213c0-.233.085-.474.255-.723l6.74-9.18c.216-.263.502-.395.857-.395h3.382c.169 0 .309.054.417.163a.57.57 0 0 1 .162.42v9.04h2.038a.572.572 0 0 1 .602.581v2.307c0 .17-.054.31-.162.419a.564.564 0 0 1-.417.163h-2.061v2.633a.58.58 0 0 1-.162.407.545.545 0 0 1-.417.175h-2.872a.552.552 0 0 1-.405-.175v.001Zm-.081-6.349v-5.499l-3.892 5.5h3.892Z"/></g><g fill="#EE672D"><path d="M26.817 15.5c0 4.49-2.555 8.379-6.282 10.276-.048-1.697-.098-3.247-.152-3.949-.084-1.085.26-1.97 1.11-2.655a2.966 2.966 0 0 0 1.09-2.77c-.317-2-.688-3.99-1.04-5.983-.042-.245-.187-.39-.444-.357-.204.026-.274.307-.273.47.01 1.047.058 2.094.095 3.142.026.762.058 1.526.075 2.288.009.415-.177.65-.49.657-.327.01-.526-.23-.542-.657l-.001-.039c-.037-1.386-.094-3.974-.134-5.463a.459.459 0 0 0-.197-.368h-.002a.28.28 0 0 0-.322-.004.46.46 0 0 0-.194.364c-.035 1.295-.07 2.985-.104 4.256-.014.465-.02.931-.049 1.396-.02.31-.191.519-.514.513-.319-.007-.49-.207-.5-.527-.007-.22.004-.44.012-.66.053-1.616.108-3.232.163-4.848.01-.247-.003-.498-.307-.533-.292-.034-.393.19-.444.436-.13.62-.281 1.237-.384 1.861a218.866 218.866 0 0 0-.656 4.252 2.406 2.406 0 0 0 .378 1.709c.24.36.556.674.874.971.646.609 1.034 1.334.983 2.23-.062 1.068-.131 3.082-.202 5.106-.954.26-1.956.398-2.991.398a11.35 11.35 0 0 1-2.829-.355c-.068-1.967-.136-3.907-.203-4.938-.05-.761.26-1.388.755-1.929.648-.707 1.292-1.419 1.549-2.375.565-2.102.313-4.111-.796-5.98-.697-1.176-1.952-1.661-3.112-1.254-.932.328-1.519 1.055-1.905 1.929-.696 1.58-.888 3.23-.524 4.93.184.856.604 1.584 1.193 2.225.295.322.581.659.828 1.018.3.436.43.938.396 1.472-.051.795-.105 2.432-.159 4.194A11.512 11.512 0 0 1 3.93 15.5c0-6.357 5.123-11.512 11.444-11.512 6.321 0 11.445 5.154 11.445 11.513h-.002Z"/><path d="M28.43 22.327c-.36-.192-.81-.092-1.024.27a15.334 15.334 0 0 1-.881 1.334l-.118.154c-.37.464-.758.912-1.177 1.332a14.832 14.832 0 0 1-1.183 1.064l-.117.093a14.904 14.904 0 0 1-2.308 1.456 15.103 15.103 0 0 1-.713.337l-.07.03-.144.06c-.075.03-.151.061-.227.09a15.344 15.344 0 0 1-1.338.444c-.608.169-1.226.296-1.85.386-.032.004-.09.013-.119.015a14.41 14.41 0 0 1-1.75.105 14.759 14.759 0 0 1-1.825-.112c-.075-.008-.15-.022-.225-.033a13.968 13.968 0 0 1-1.277-.257 14.49 14.49 0 0 1-2.015-.66l-.073-.031-.003-.001-.202-.09a14.628 14.628 0 0 1-2.205-1.236c-.232-.158-.456-.327-.683-.493l-.047-.038a12.007 12.007 0 0 1-.505-.42 14.706 14.706 0 0 1-1.941-2.048l-.094-.122a14.777 14.777 0 0 1-1.697-2.927l-.033-.076v-.002c-.425-1.08-.754-2.182-.934-3.33l-.035-.228v-.004l-.006-.053a15.32 15.32 0 0 1-.105-1.363 15.02 15.02 0 0 1 .095-2.22l.016-.134.006-.037c.007-.048.013-.095.021-.142a14.592 14.592 0 0 1 .941-3.386l.002-.002c.026-.06.051-.12.078-.178a14.888 14.888 0 0 1 1.7-2.891l.023-.03.033-.043.147-.186a14.954 14.954 0 0 1 2.055-2.077l.148-.121.085-.069.051-.04.1-.076a16.633 16.633 0 0 1 .534-.383A14.638 14.638 0 0 1 9.992 2.6l-.024.012c.132-.063.274-.113.412-.166a14.454 14.454 0 0 1 3.096-.812l.087-.012.026-.002a14.826 14.826 0 0 1 3.524-.016l.13.016.063.01a14.48 14.48 0 0 1 3.512.966l-.005-.003.007.004.046.02.064.027a14.608 14.608 0 0 1 2.932 1.732l.066.05a.052.052 0 0 1 .006.006l.196.157c.251.206.496.42.733.642.089.083.175.168.261.252h-.92c-.391 0-.767.347-.748.754.018.408.329.753.748.753h2.48c.392 0 .768-.347.75-.753-.001-.021-.006-.04-.009-.06a.759.759 0 0 0 .008-.106V2.848c0-.394-.344-.772-.748-.754-.406.019-.75.332-.75.754v1.335A15.582 15.582 0 0 0 20.528.877C17.953-.048 15.14-.23 12.46.284c-2.393.457-4.636 1.52-6.554 3.02A15.346 15.346 0 0 0 1.52 8.784a15.682 15.682 0 0 0-1.51 7.277 15.653 15.653 0 0 0 1.992 7.09 15.656 15.656 0 0 0 4.85 5.242c2.036 1.38 4.386 2.22 6.82 2.508 2.67.317 5.385-.113 7.852-1.172 2.421-1.038 4.526-2.728 6.129-4.82.38-.495.728-1.012 1.045-1.55.2-.34.088-.841-.268-1.03Z"/><path d="M20.817 2.593c.074.034.072.031.05.022l-.047-.02-.003-.002ZM4.388 6.95l-.006.007.04-.05a1.225 1.225 0 0 0-.033.042Z"/></g></g><defs><clipPath id="a"><path fill="#fff" d="M0 0h133v31H0z"/></clipPath></defs></svg>